<svg height="1678" width="720" xmlns="http://www.w3.org/2000/svg">
<rect height="1678" fill="#555" width="720"></rect>
<text fill="#7f7" font-family="Courier New" font-size="12" xml:space="preserve">
<tspan x="10" y="26">36 megabytes installed</tspan>
<tspan x="10" y="42"></tspan>
<tspan x="10" y="58">node_modules</tspan>
<tspan x="10" y="74">└─┬ systemjs-builder@0.16.4 </tspan>
<tspan x="10" y="90">  ├─┬ babel-core@6.24.1 </tspan>
<tspan x="10" y="106">  │ ├─┬ babel-code-frame@6.22.0 </tspan>
<tspan x="10" y="122">  │ │ ├─┬ chalk@1.1.3 </tspan>
<tspan x="10" y="138">  │ │ │ ├── ansi-styles@2.2.1 </tspan>
<tspan x="10" y="154">  │ │ │ ├── escape-string-regexp@1.0.5 </tspan>
<tspan x="10" y="170">  │ │ │ ├─┬ has-ansi@2.0.0 </tspan>
<tspan x="10" y="186">  │ │ │ │ └── ansi-regex@2.1.1 </tspan>
<tspan x="10" y="202">  │ │ │ ├── strip-ansi@3.0.1 </tspan>
<tspan x="10" y="218">  │ │ │ └── supports-color@2.0.0 </tspan>
<tspan x="10" y="234">  │ │ ├── esutils@2.0.2 </tspan>
<tspan x="10" y="250">  │ │ └── js-tokens@3.0.1 </tspan>
<tspan x="10" y="266">  │ ├─┬ babel-generator@6.24.1 </tspan>
<tspan x="10" y="282">  │ │ ├─┬ detect-indent@4.0.0 </tspan>
<tspan x="10" y="298">  │ │ │ └─┬ repeating@2.0.1 </tspan>
<tspan x="10" y="314">  │ │ │   └─┬ is-finite@1.0.2 </tspan>
<tspan x="10" y="330">  │ │ │     └── number-is-nan@1.0.1 </tspan>
<tspan x="10" y="346">  │ │ ├── jsesc@1.3.0 </tspan>
<tspan x="10" y="362">  │ │ └── trim-right@1.0.1 </tspan>
<tspan x="10" y="378">  │ ├── babel-helpers@6.24.1 </tspan>
<tspan x="10" y="394">  │ ├── babel-messages@6.23.0 </tspan>
<tspan x="10" y="410">  │ ├─┬ babel-register@6.24.1 </tspan>
<tspan x="10" y="426">  │ │ ├── core-js@2.4.1 </tspan>
<tspan x="10" y="442">  │ │ └─┬ home-or-tmp@2.0.0 </tspan>
<tspan x="10" y="458">  │ │   ├── os-homedir@1.0.2 </tspan>
<tspan x="10" y="474">  │ │   └── os-tmpdir@1.0.2 </tspan>
<tspan x="10" y="490">  │ ├─┬ babel-runtime@6.23.0 </tspan>
<tspan x="10" y="506">  │ │ └── regenerator-runtime@0.10.3 </tspan>
<tspan x="10" y="522">  │ ├── babel-template@6.24.1 </tspan>
<tspan x="10" y="538">  │ ├─┬ babel-traverse@6.24.1 </tspan>
<tspan x="10" y="554">  │ │ ├── globals@9.17.0 </tspan>
<tspan x="10" y="570">  │ │ └─┬ invariant@2.2.2 </tspan>
<tspan x="10" y="586">  │ │   └── loose-envify@1.3.1 </tspan>
<tspan x="10" y="602">  │ ├─┬ babel-types@6.24.1 </tspan>
<tspan x="10" y="618">  │ │ └── to-fast-properties@1.0.2 </tspan>
<tspan x="10" y="634">  │ ├── babylon@6.16.1 </tspan>
<tspan x="10" y="650">  │ ├── convert-source-map@1.5.0 </tspan>
<tspan x="10" y="666">  │ ├─┬ debug@2.6.3 </tspan>
<tspan x="10" y="682">  │ │ └── ms@0.7.2 </tspan>
<tspan x="10" y="698">  │ ├── json5@0.5.1 </tspan>
<tspan x="10" y="714">  │ ├── lodash@4.17.4 </tspan>
<tspan x="10" y="730">  │ ├─┬ minimatch@3.0.3 </tspan>
<tspan x="10" y="746">  │ │ └─┬ brace-expansion@1.1.7 </tspan>
<tspan x="10" y="762">  │ │   ├── balanced-match@0.4.2 </tspan>
<tspan x="10" y="778">  │ │   └── concat-map@0.0.1 </tspan>
<tspan x="10" y="794">  │ ├── path-is-absolute@1.0.1 </tspan>
<tspan x="10" y="810">  │ ├── private@0.1.7 </tspan>
<tspan x="10" y="826">  │ └── slash@1.0.0 </tspan>
<tspan x="10" y="842">  ├── babel-plugin-transform-amd-system-wrapper@0.3.4 </tspan>
<tspan x="10" y="858">  ├── babel-plugin-transform-cjs-system-wrapper@0.6.0 </tspan>
<tspan x="10" y="874">  ├─┬ babel-plugin-transform-es2015-modules-systemjs@6.24.1 </tspan>
<tspan x="10" y="890">  │ └── babel-helper-hoist-variables@6.24.1 </tspan>
<tspan x="10" y="906">  ├── babel-plugin-transform-global-system-wrapper@0.3.0 </tspan>
<tspan x="10" y="922">  ├── babel-plugin-transform-system-register@0.0.1 </tspan>
<tspan x="10" y="938">  ├── bluebird@3.5.0 </tspan>
<tspan x="10" y="954">  ├── data-uri-to-buffer@0.0.4 </tspan>
<tspan x="10" y="970">  ├─┬ es6-template-strings@2.0.1 </tspan>
<tspan x="10" y="986">  │ ├─┬ es5-ext@0.10.15 </tspan>
<tspan x="10" y="1002">  │ │ ├── es6-iterator@2.0.1 </tspan>
<tspan x="10" y="1018">  │ │ └── es6-symbol@3.1.1 </tspan>
<tspan x="10" y="1034">  │ └─┬ esniff@1.1.0 </tspan>
<tspan x="10" y="1050">  │   └── d@1.0.0 </tspan>
<tspan x="10" y="1066">  ├─┬ glob@7.1.1 </tspan>
<tspan x="10" y="1082">  │ ├── fs.realpath@1.0.0 </tspan>
<tspan x="10" y="1098">  │ ├─┬ inflight@1.0.6 </tspan>
<tspan x="10" y="1114">  │ │ └── wrappy@1.0.2 </tspan>
<tspan x="10" y="1130">  │ ├── inherits@2.0.3 </tspan>
<tspan x="10" y="1146">  │ └── once@1.4.0 </tspan>
<tspan x="10" y="1162">  ├─┬ mkdirp@0.5.1 </tspan>
<tspan x="10" y="1178">  │ └── minimist@0.0.8 </tspan>
<tspan x="10" y="1194">  ├─┬ rollup@0.36.4 </tspan>
<tspan x="10" y="1210">  │ └── source-map-support@0.4.14 </tspan>
<tspan x="10" y="1226">  ├── source-map@0.5.6 </tspan>
<tspan x="10" y="1242">  ├─┬ systemjs@0.19.47 </tspan>
<tspan x="10" y="1258">  │ └── when@3.7.8 </tspan>
<tspan x="10" y="1274">  ├─┬ traceur@0.0.105 </tspan>
<tspan x="10" y="1290">  │ ├─┬ commander@2.9.0 </tspan>
<tspan x="10" y="1306">  │ │ └── graceful-readlink@1.0.1 </tspan>
<tspan x="10" y="1322">  │ ├── glob@5.0.15 </tspan>
<tspan x="10" y="1338">  │ ├── rsvp@3.5.0 </tspan>
<tspan x="10" y="1354">  │ ├── semver@4.3.6 </tspan>
<tspan x="10" y="1370">  │ └─┬ source-map-support@0.2.10 </tspan>
<tspan x="10" y="1386">  │   └─┬ source-map@0.1.32 </tspan>
<tspan x="10" y="1402">  │     └── amdefine@1.0.1 </tspan>
<tspan x="10" y="1418">  └─┬ uglify-js@2.8.22 </tspan>
<tspan x="10" y="1434">    ├── uglify-to-browserify@1.0.2 </tspan>
<tspan x="10" y="1450">    └─┬ yargs@3.10.0 </tspan>
<tspan x="10" y="1466">      ├── camelcase@1.2.1 </tspan>
<tspan x="10" y="1482">      ├─┬ cliui@2.1.0 </tspan>
<tspan x="10" y="1498">      │ ├─┬ center-align@0.1.3 </tspan>
<tspan x="10" y="1514">      │ │ ├─┬ align-text@0.1.4 </tspan>
<tspan x="10" y="1530">      │ │ │ ├─┬ kind-of@3.1.0 </tspan>
<tspan x="10" y="1546">      │ │ │ │ └── is-buffer@1.1.5 </tspan>
<tspan x="10" y="1562">      │ │ │ ├── longest@1.0.1 </tspan>
<tspan x="10" y="1578">      │ │ │ └── repeat-string@1.6.1 </tspan>
<tspan x="10" y="1594">      │ │ └── lazy-cache@1.0.4 </tspan>
<tspan x="10" y="1610">      │ ├── right-align@0.1.3 </tspan>
<tspan x="10" y="1626">      │ └── wordwrap@0.0.2 </tspan>
<tspan x="10" y="1642">      ├── decamelize@1.2.0 </tspan>
<tspan x="10" y="1658">      └── window-size@0.1.0</tspan>
</text>
</svg>
